<svg width="214" height="51" viewBox="0 0 214 51" fill="none" xmlns="http://www.w3.org/2000/svg">
<path d="M74.6376 17.3151H69.0252L68.0965 20.0002H65.1288L70.1961 5.88836H73.4869L78.5542 20.0002H75.5663L74.6376 17.3151ZM73.8705 15.054L71.8314 9.15892L69.7923 15.054H73.8705ZM84.7283 20.1819C83.8131 20.1819 82.9921 20.0204 82.2653 19.6974C81.5385 19.3609 80.9598 18.9101 80.5291 18.3448C80.1119 17.7795 79.8831 17.1536 79.8427 16.4672H82.6893C82.7431 16.8979 82.9517 17.2546 83.3151 17.5372C83.692 17.8199 84.1563 17.9612 84.7081 17.9612C85.2465 17.9612 85.6637 17.8535 85.9598 17.6382C86.2694 17.4228 86.4242 17.1469 86.4242 16.8104C86.4242 16.447 86.2358 16.1779 85.8589 16.0029C85.4955 15.8145 84.91 15.6126 84.1025 15.3972C83.268 15.1953 82.5816 14.9867 82.0432 14.7714C81.5183 14.556 81.0607 14.2263 80.6704 13.7821C80.2936 13.338 80.1051 12.739 80.1051 11.9853C80.1051 11.3662 80.2801 10.8009 80.63 10.2895C80.9934 9.77804 81.5049 9.37427 82.1644 9.07817C82.8373 8.78207 83.6247 8.63402 84.5265 8.63402C85.8589 8.63402 86.9222 8.9705 87.7163 9.64345C88.5103 10.3029 88.9478 11.198 89.0285 12.3285H86.3232C86.2829 11.8844 86.0944 11.5345 85.758 11.2787C85.4349 11.0096 84.9975 10.875 84.4457 10.875C83.9342 10.875 83.5372 10.9692 83.2546 11.1576C82.9854 11.346 82.8508 11.6085 82.8508 11.945C82.8508 12.3218 83.0392 12.6112 83.4161 12.8131C83.7929 13.0015 84.3784 13.1967 85.1725 13.3985C85.98 13.6004 86.6463 13.809 87.1712 14.0244C87.6961 14.2397 88.147 14.5762 88.5238 15.0338C88.9141 15.478 89.116 16.0702 89.1295 16.8104C89.1295 17.4565 88.9478 18.0352 88.5844 18.5467C88.2344 19.0581 87.723 19.4619 87.05 19.758C86.3905 20.0406 85.6166 20.1819 84.7283 20.1819ZM105.339 8.65421C106.712 8.65421 107.816 9.07817 108.65 9.92609C109.498 10.7606 109.922 11.9315 109.922 13.4389V20.0002H107.096V13.8225C107.096 12.9477 106.874 12.2814 106.43 11.8238C105.985 11.3528 105.38 11.1172 104.613 11.1172C103.845 11.1172 103.233 11.3528 102.775 11.8238C102.331 12.2814 102.109 12.9477 102.109 13.8225V20.0002H99.2828V13.8225C99.2828 12.9477 99.0607 12.2814 98.6166 11.8238C98.1724 11.3528 97.5668 11.1172 96.7996 11.1172C96.019 11.1172 95.3998 11.3528 94.9422 11.8238C94.4981 12.2814 94.276 12.9477 94.276 13.8225V20.0002H91.4496V8.81572H94.276V10.1684C94.6394 9.69729 95.1037 9.32716 95.669 9.05798C96.2478 8.7888 96.8803 8.65421 97.5668 8.65421C98.4416 8.65421 99.2222 8.84263 99.9086 9.21949C100.595 9.58289 101.127 10.1078 101.504 10.7942C101.867 10.1482 102.392 9.62999 103.078 9.23968C103.778 8.84936 104.532 8.65421 105.339 8.65421ZM111.878 14.3676C111.878 13.237 112.1 12.2343 112.544 11.3595C113.001 10.4846 113.614 9.81169 114.381 9.34062C115.162 8.86955 116.03 8.63402 116.985 8.63402C117.82 8.63402 118.547 8.80226 119.166 9.13873C119.798 9.47521 120.303 9.89917 120.68 10.4106V8.81572H123.526V20.0002H120.68V18.365C120.316 18.8899 119.812 19.3273 119.166 19.6772C118.533 20.0137 117.8 20.1819 116.965 20.1819C116.023 20.1819 115.162 19.9397 114.381 19.4551C113.614 18.9706 113.001 18.2909 112.544 17.4161C112.1 16.5278 111.878 15.5116 111.878 14.3676ZM120.68 14.408C120.68 13.7216 120.545 13.1361 120.276 12.6516C120.007 12.1536 119.643 11.7767 119.186 11.521C118.728 11.2518 118.237 11.1172 117.712 11.1172C117.187 11.1172 116.703 11.2451 116.258 11.5008C115.814 11.7565 115.451 12.1334 115.168 12.6314C114.899 13.1159 114.765 13.6946 114.765 14.3676C114.765 15.0406 114.899 15.6328 115.168 16.1442C115.451 16.6422 115.814 17.0258 116.258 17.295C116.716 17.5641 117.201 17.6987 117.712 17.6987C118.237 17.6987 118.728 17.5709 119.186 17.3151C119.643 17.046 120.007 16.6691 120.276 16.1846C120.545 15.6866 120.68 15.0944 120.68 14.408ZM125.56 14.3676C125.56 13.237 125.782 12.2343 126.226 11.3595C126.684 10.4846 127.303 9.81169 128.084 9.34062C128.864 8.86955 129.732 8.63402 130.688 8.63402C131.415 8.63402 132.108 8.79553 132.767 9.11855C133.427 9.42811 133.952 9.84534 134.342 10.3702V5.06062H137.209V20.0002H134.342V18.3448C133.992 18.8966 133.501 19.3407 132.868 19.6772C132.236 20.0137 131.502 20.1819 130.668 20.1819C129.726 20.1819 128.864 19.9397 128.084 19.4551C127.303 18.9706 126.684 18.2909 126.226 17.4161C125.782 16.5278 125.56 15.5116 125.56 14.3676ZM134.362 14.408C134.362 13.7216 134.228 13.1361 133.959 12.6516C133.689 12.1536 133.326 11.7767 132.868 11.521C132.411 11.2518 131.92 11.1172 131.395 11.1172C130.87 11.1172 130.385 11.2451 129.941 11.5008C129.497 11.7565 129.133 12.1334 128.851 12.6314C128.582 13.1159 128.447 13.6946 128.447 14.3676C128.447 15.0406 128.582 15.6328 128.851 16.1442C129.133 16.6422 129.497 17.0258 129.941 17.295C130.399 17.5641 130.883 17.6987 131.395 17.6987C131.92 17.6987 132.411 17.5709 132.868 17.3151C133.326 17.046 133.689 16.6691 133.959 16.1846C134.228 15.6866 134.362 15.0944 134.362 14.408ZM141.403 7.48326C140.905 7.48326 140.488 7.32848 140.151 7.01892C139.828 6.6959 139.667 6.29886 139.667 5.82779C139.667 5.35672 139.828 4.96641 140.151 4.65685C140.488 4.33383 140.905 4.17232 141.403 4.17232C141.901 4.17232 142.311 4.33383 142.634 4.65685C142.971 4.96641 143.139 5.35672 143.139 5.82779C143.139 6.29886 142.971 6.6959 142.634 7.01892C142.311 7.32848 141.901 7.48326 141.403 7.48326ZM142.796 8.81572V20.0002H139.969V8.81572H142.796ZM156.288 8.81572L149.364 25.2897H146.356L148.778 19.7176L144.296 8.81572H147.466L150.353 16.6287L153.28 8.81572H156.288ZM157.085 14.3676C157.085 13.237 157.307 12.2343 157.751 11.3595C158.209 10.4846 158.821 9.81169 159.589 9.34062C160.369 8.86955 161.237 8.63402 162.193 8.63402C163.027 8.63402 163.754 8.80226 164.373 9.13873C165.006 9.47521 165.511 9.89917 165.887 10.4106V8.81572H168.734V20.0002H165.887V18.365C165.524 18.8899 165.019 19.3273 164.373 19.6772C163.741 20.0137 163.007 20.1819 162.173 20.1819C161.231 20.1819 160.369 19.9397 159.589 19.4551C158.821 18.9706 158.209 18.2909 157.751 17.4161C157.307 16.5278 157.085 15.5116 157.085 14.3676ZM165.887 14.408C165.887 13.7216 165.753 13.1361 165.484 12.6516C165.215 12.1536 164.851 11.7767 164.393 11.521C163.936 11.2518 163.445 11.1172 162.92 11.1172C162.395 11.1172 161.91 11.2451 161.466 11.5008C161.022 11.7565 160.659 12.1334 160.376 12.6314C160.107 13.1159 159.972 13.6946 159.972 14.3676C159.972 15.0406 160.107 15.6328 160.376 16.1442C160.659 16.6422 161.022 17.0258 161.466 17.295C161.924 17.5641 162.408 17.6987 162.92 17.6987C163.445 17.6987 163.936 17.5709 164.393 17.3151C164.851 17.046 165.215 16.6691 165.484 16.1846C165.753 15.6866 165.887 15.0944 165.887 14.408ZM75.5865 30.9085V33.1899H71.8314V45.0002H69.005V33.1899H65.2499V30.9085H75.5865ZM88.0459 39.1657C88.0459 39.5695 88.019 39.9329 87.9651 40.2559H79.7887C79.856 41.0635 80.1387 41.696 80.6367 42.1536C81.1346 42.6113 81.747 42.8401 82.4738 42.8401C83.5236 42.8401 84.2706 42.3892 84.7148 41.4874H87.7633C87.4402 42.5641 86.8211 43.4524 85.9059 44.1523C84.9907 44.8387 83.8668 45.1819 82.5344 45.1819C81.4577 45.1819 80.4886 44.9464 79.6272 44.4753C78.7793 43.9908 78.1131 43.3111 77.6285 42.4363C77.1575 41.5614 76.9219 40.552 76.9219 39.408C76.9219 38.2505 77.1575 37.2343 77.6285 36.3595C78.0996 35.4846 78.7591 34.8117 79.607 34.3406C80.455 33.8696 81.4307 33.634 82.5344 33.634C83.5977 33.634 84.5465 33.8628 85.381 34.3204C86.2289 34.778 86.8817 35.4308 87.3393 36.2787C87.8104 37.1132 88.0459 38.0755 88.0459 39.1657ZM85.1185 38.3582C85.1051 37.6314 84.8426 37.0526 84.3312 36.6219C83.8197 36.1778 83.1939 35.9557 82.4536 35.9557C81.7538 35.9557 81.1616 36.1711 80.677 36.6018C80.206 37.019 79.9166 37.6045 79.8089 38.3582H85.1185ZM89.3821 39.408C89.3821 38.2505 89.6177 37.2411 90.0887 36.3797C90.5598 35.5048 91.2126 34.8319 92.047 34.3608C92.8815 33.8763 93.8371 33.634 94.9138 33.634C96.3001 33.634 97.4442 33.984 98.3459 34.6838C99.2611 35.3702 99.8735 36.3393 100.183 37.591H97.1346C96.9731 37.1065 96.6972 36.7296 96.3069 36.4604C95.93 36.1778 95.4589 36.0365 94.8937 36.0365C94.0861 36.0365 93.4468 36.3326 92.9757 36.9248C92.5047 37.5035 92.2691 38.3313 92.2691 39.408C92.2691 40.4713 92.5047 41.299 92.9757 41.8912C93.4468 42.4699 94.0861 42.7593 94.8937 42.7593C96.0377 42.7593 96.7847 42.2479 97.1346 41.225H100.183C99.8735 42.4363 99.2611 43.3986 98.3459 44.1119C97.4307 44.8253 96.2867 45.1819 94.9138 45.1819C93.8371 45.1819 92.8815 44.9464 92.047 44.4753C91.2126 43.9908 90.5598 43.3179 90.0887 42.4565C89.6177 41.5816 89.3821 40.5655 89.3821 39.408ZM108.553 33.6542C109.4 33.6542 110.154 33.8426 110.814 34.2195C111.473 34.5829 111.985 35.128 112.348 35.8548C112.725 36.5681 112.913 37.4295 112.913 38.4389V45.0002H110.087V38.8225C110.087 37.9342 109.865 37.2545 109.421 36.7835C108.977 36.2989 108.371 36.0567 107.604 36.0567C106.823 36.0567 106.204 36.2989 105.746 36.7835C105.302 37.2545 105.08 37.9342 105.08 38.8225V45.0002H102.254V30.0606H105.08V35.2087C105.443 34.7242 105.928 34.3474 106.534 34.0782C107.139 33.7955 107.812 33.6542 108.553 33.6542ZM121.799 33.6542C123.131 33.6542 124.208 34.0782 125.029 34.9261C125.85 35.7606 126.261 36.9315 126.261 38.4389V45.0002H123.434V38.8225C123.434 37.9342 123.212 37.2545 122.768 36.7835C122.324 36.2989 121.718 36.0567 120.951 36.0567C120.17 36.0567 119.551 36.2989 119.094 36.7835C118.65 37.2545 118.427 37.9342 118.427 38.8225V45.0002H115.601V33.8157H118.427V35.2087C118.804 34.7242 119.282 34.3474 119.861 34.0782C120.453 33.7955 121.099 33.6542 121.799 33.6542ZM133.915 45.1819C132.838 45.1819 131.869 44.9464 131.008 44.4753C130.146 43.9908 129.467 43.3111 128.969 42.4363C128.484 41.5614 128.242 40.552 128.242 39.408C128.242 38.264 128.491 37.2545 128.989 36.3797C129.5 35.5048 130.193 34.8319 131.068 34.3608C131.943 33.8763 132.919 33.634 133.996 33.634C135.072 33.634 136.048 33.8763 136.923 34.3608C137.798 34.8319 138.484 35.5048 138.982 36.3797C139.494 37.2545 139.749 38.264 139.749 39.408C139.749 40.552 139.487 41.5614 138.962 42.4363C138.451 43.3111 137.751 43.9908 136.862 44.4753C135.988 44.9464 135.005 45.1819 133.915 45.1819ZM133.915 42.7189C134.426 42.7189 134.904 42.5978 135.348 42.3555C135.806 42.0998 136.169 41.7229 136.438 41.225C136.708 40.727 136.842 40.1213 136.842 39.408C136.842 38.3447 136.56 37.5304 135.994 36.9651C135.443 36.3864 134.763 36.097 133.955 36.097C133.148 36.097 132.468 36.3864 131.916 36.9651C131.378 37.5304 131.109 38.3447 131.109 39.408C131.109 40.4713 131.371 41.2923 131.896 41.871C132.434 42.4363 133.107 42.7189 133.915 42.7189ZM144.649 30.0606V45.0002H141.823V30.0606H144.649ZM152.408 45.1819C151.331 45.1819 150.362 44.9464 149.501 44.4753C148.639 43.9908 147.96 43.3111 147.462 42.4363C146.977 41.5614 146.735 40.552 146.735 39.408C146.735 38.264 146.984 37.2545 147.482 36.3797C147.993 35.5048 148.687 34.8319 149.561 34.3608C150.436 33.8763 151.412 33.634 152.489 33.634C153.566 33.634 154.541 33.8763 155.416 34.3608C156.291 34.8319 156.977 35.5048 157.475 36.3797C157.987 37.2545 158.243 38.264 158.243 39.408C158.243 40.552 157.98 41.5614 157.455 42.4363C156.944 43.3111 156.244 43.9908 155.356 44.4753C154.481 44.9464 153.498 45.1819 152.408 45.1819ZM152.408 42.7189C152.919 42.7189 153.397 42.5978 153.841 42.3555C154.299 42.0998 154.662 41.7229 154.932 41.225C155.201 40.727 155.335 40.1213 155.335 39.408C155.335 38.3447 155.053 37.5304 154.487 36.9651C153.936 36.3864 153.256 36.097 152.448 36.097C151.641 36.097 150.961 36.3864 150.409 36.9651C149.871 37.5304 149.602 38.3447 149.602 39.408C149.602 40.4713 149.864 41.2923 150.389 41.871C150.928 42.4363 151.6 42.7189 152.408 42.7189ZM164.697 33.634C165.531 33.634 166.265 33.8023 166.897 34.1387C167.53 34.4618 168.028 34.8857 168.391 35.4106V33.8157H171.238V45.081C171.238 46.1174 171.029 47.0393 170.612 47.8468C170.195 48.6679 169.569 49.3139 168.735 49.785C167.9 50.2695 166.891 50.5118 165.706 50.5118C164.118 50.5118 162.813 50.1416 161.79 49.4014C160.78 48.6611 160.208 47.6517 160.074 46.3731H162.88C163.028 46.8845 163.344 47.2883 163.829 47.5844C164.327 47.894 164.926 48.0487 165.625 48.0487C166.446 48.0487 167.113 47.7997 167.624 47.3018C168.136 46.8172 168.391 46.077 168.391 45.081V43.3448C168.028 43.8697 167.523 44.3071 166.877 44.657C166.245 45.007 165.518 45.1819 164.697 45.1819C163.755 45.1819 162.893 44.9397 162.113 44.4551C161.332 43.9706 160.713 43.2909 160.255 42.4161C159.811 41.5278 159.589 40.5116 159.589 39.3676C159.589 38.237 159.811 37.2343 160.255 36.3595C160.713 35.4846 161.325 34.8117 162.092 34.3406C162.873 33.8696 163.741 33.634 164.697 33.634ZM168.391 39.408C168.391 38.7216 168.257 38.1361 167.988 37.6516C167.718 37.1536 167.355 36.7767 166.897 36.521C166.44 36.2518 165.948 36.1172 165.424 36.1172C164.899 36.1172 164.414 36.2451 163.97 36.5008C163.526 36.7565 163.162 37.1334 162.88 37.6314C162.611 38.1159 162.476 38.6946 162.476 39.3676C162.476 40.0406 162.611 40.6328 162.88 41.1442C163.162 41.6422 163.526 42.0258 163.97 42.295C164.428 42.5641 164.912 42.6987 165.424 42.6987C165.948 42.6987 166.44 42.5709 166.897 42.3151C167.355 42.046 167.718 41.6691 167.988 41.1846C168.257 40.6866 168.391 40.0944 168.391 39.408ZM175.432 32.4833C174.934 32.4833 174.517 32.3285 174.18 32.0189C173.857 31.6959 173.696 31.2989 173.696 30.8278C173.696 30.3567 173.857 29.9664 174.18 29.6568C174.517 29.3338 174.934 29.1723 175.432 29.1723C175.93 29.1723 176.34 29.3338 176.663 29.6568C177 29.9664 177.168 30.3567 177.168 30.8278C177.168 31.2989 177 31.6959 176.663 32.0189C176.34 32.3285 175.93 32.4833 175.432 32.4833ZM176.825 33.8157V45.0002H173.998V33.8157H176.825ZM190.015 39.1657C190.015 39.5695 189.988 39.9329 189.934 40.2559H181.757C181.825 41.0635 182.107 41.696 182.605 42.1536C183.103 42.6113 183.716 42.8401 184.442 42.8401C185.492 42.8401 186.239 42.3892 186.683 41.4874H189.732C189.409 42.5641 188.79 43.4524 187.875 44.1523C186.959 44.8387 185.835 45.1819 184.503 45.1819C183.426 45.1819 182.457 44.9464 181.596 44.4753C180.748 43.9908 180.082 43.3111 179.597 42.4363C179.126 41.5614 178.891 40.552 178.891 39.408C178.891 38.2505 179.126 37.2343 179.597 36.3595C180.068 35.4846 180.728 34.8117 181.576 34.3406C182.424 33.8696 183.399 33.634 184.503 33.634C185.566 33.634 186.515 33.8628 187.35 34.3204C188.198 34.778 188.85 35.4308 189.308 36.2787C189.779 37.1132 190.015 38.0755 190.015 39.1657ZM187.087 38.3582C187.074 37.6314 186.811 37.0526 186.3 36.6219C185.788 36.1778 185.162 35.9557 184.422 35.9557C183.722 35.9557 183.13 36.1711 182.646 36.6018C182.175 37.019 181.885 37.6045 181.778 38.3582H187.087ZM196.358 45.1819C195.442 45.1819 194.621 45.0204 193.895 44.6974C193.168 44.3609 192.589 43.9101 192.158 43.3448C191.741 42.7795 191.512 42.1536 191.472 41.4672H194.318C194.372 41.8979 194.581 42.2546 194.944 42.5372C195.321 42.8199 195.786 42.9612 196.337 42.9612C196.876 42.9612 197.293 42.8535 197.589 42.6382C197.899 42.4228 198.053 42.1469 198.053 41.8104C198.053 41.447 197.865 41.1779 197.488 41.0029C197.125 40.8145 196.539 40.6126 195.732 40.3972C194.897 40.1953 194.211 39.9867 193.672 39.7714C193.148 39.556 192.69 39.2263 192.3 38.7821C191.923 38.338 191.734 37.739 191.734 36.9853C191.734 36.3662 191.909 35.8009 192.259 35.2895C192.623 34.778 193.134 34.3743 193.794 34.0782C194.467 33.7821 195.254 33.634 196.156 33.634C197.488 33.634 198.551 33.9705 199.345 34.6435C200.14 35.3029 200.577 36.198 200.658 37.3285H197.952C197.912 36.8844 197.724 36.5345 197.387 36.2787C197.064 36.0096 196.627 35.875 196.075 35.875C195.563 35.875 195.166 35.9692 194.884 36.1576C194.615 36.346 194.48 36.6085 194.48 36.945C194.48 37.3218 194.668 37.6112 195.045 37.8131C195.422 38.0015 196.008 38.1967 196.802 38.3985C197.609 38.6004 198.275 38.809 198.8 39.0244C199.325 39.2397 199.776 39.5762 200.153 40.0338C200.543 40.478 200.745 41.0702 200.759 41.8104C200.759 42.4565 200.577 43.0352 200.214 43.5467C199.864 44.0581 199.352 44.4619 198.679 44.758C198.02 45.0406 197.246 45.1819 196.358 45.1819Z" fill="#2C2C2C"/>
<path d="M12.1132 4.02417L0 25.1324H24.2264L12.1132 4.02417Z" fill="#120078"/>
<path d="M47.4433 4.02417H26.2452V25.1324H47.4433V4.02417Z" fill="#9D0191"/>
<path d="M47.4432 38.8541C47.4432 43.5147 43.8269 47.2957 39.368 47.2957C34.9086 47.2957 31.2923 43.5147 31.2923 38.8541C31.2923 34.1902 34.9086 30.4092 39.368 30.4092C43.8269 30.4092 47.4432 34.1902 47.4432 38.8541Z" fill="#FECD1A"/>
<path d="M21.4732 30.4092H4.77207C2.14875 30.4092 0 31.7913 0 33.4792V44.2257C0 45.9141 2.14875 47.2957 4.77207 47.2957H21.4732C24.0972 47.2957 26.2453 45.9141 26.2453 44.2257V33.4792C26.2453 31.7913 24.0972 30.4092 21.4732 30.4092Z" fill="#FD3A69"/>
</svg>
